<svg width="254.3542724609375px" height="110px" xmlns="http://www.w3.org/2000/svg" viewBox="122.82286376953125 20 254.3542724609375 110" style="background: rgba(0, 0, 0, 0);" preserveAspectRatio="xMidYMid"><defs><linearGradient id="editing-shiny-gradient" x1="0.04322727117869957" x2="0.9567727288213004" y1="0.2966316784620999" y2="0.7033683215379001" gradientUnits="objectBoundingBox"><stop offset="0.0" stop-color="#ffb200"></stop><stop offset="0.5" stop-color="#e10057"></stop><stop offset="1.0" stop-color="#5A1A80"></stop></linearGradient><linearGradient id="editing-shiny-gradient2" x1="0" x2="0" y1="0" y2="1"><stop offset="0.2" stop-color="#fff" stop-opacity="0.8"></stop><stop offset="0.8" stop-color="#fff" stop-opacity="0"></stop></linearGradient><filter id="editing-shiny2" x="-100%" y="-100%" width="300%" height="300%"><feMorphology operator="erode" radius="2"></feMorphology></filter><filter id="editing-shiny" x="-100%" y="-100%" width="300%" height="300%"><feFlood flood-color="#fff" result="flood"></feFlood><feConvolveMatrix in="SourceGraphic" result="conv" order="8,8" divisor="1" kernelMatrix="0 0 0 0 0 0 0 0 0 0 0 1 1 0 0 0 0 0 0 1 1 0 0 0 0 0 1 0 0 1 0 0 0 0 1 0 0 1 0 0 0 1 0 0 0 0 1 0 0 1 1 0 0 1 1 0 0 0 0 1 1 0 0 0 "></feConvolveMatrix><feOffset dx="0" dy="4" in="conv" result="offset"></feOffset><feComposite operator="in" in="flood" in2="offset" result="comp"></feComposite><feGaussianBlur in="offset" stdDeviation="3" result="shadow"></feGaussianBlur><feColorMatrix in="shadow" type="matrix" values="0.7 0 0 0 0  0 0.7 0 0 0  0 0 0.7 0 0  0 0 0 0.3 0" result="dark-shadow"></feColorMatrix><feOffset dx="0" dy="4" in="dark-shadow" result="offset-shadow"></feOffset><feOffset dx="0" dy="2" in="conv" result="offset-2"></feOffset><feComposite operator="out" in="offset" in2="offset-2" result="edge-diff"></feComposite><feGaussianBlur in="edge-diff" stdDeviation="1" result="edge-blur"></feGaussianBlur><feColorMatrix in="edge-blur" result="edge-shadow" type="matrix" values="0 0 0 0 0  0 0 0 0 0  0 0 0 0 0  0 0 0 0.5 0"></feColorMatrix><feComposite operator="in" in="edge-shadow" in2="offset" result="edge-shadow-in"></feComposite><feOffset dx="0" dy="1" in="edge-shadow-in" result="edge-shadow-final"></feOffset><feMerge result="out"><feMergeNode in="offset-shadow"></feMergeNode><feMergeNode in="comp"></feMergeNode><feMergeNode in="edge-shadow-final"></feMergeNode><feMergeNode in="SourceGraphic"></feMergeNode></feMerge></filter></defs><g filter="url(#editing-shiny)"><g transform="translate(164.56121492385864, 94.58500099182129)"><path d="M10.08-5.90L10.08-5.90L10.37-14.06L10.37-14.06Q5.76-14.64 2.64-17.18L2.64-17.18L2.64-17.18Q-0.48-19.73-0.48-24L-0.48-24L-0.48-24Q-0.48-27.50 2.98-30.79L2.98-30.79L2.98-30.79Q6.43-34.08 11.23-34.08L11.23-34.08L11.23-34.08Q18.29-34.08 18.29-24.91L18.29-24.91L18.29-24.91Q18.29-22.22 17.93-16.68L17.93-16.68L17.93-16.68Q17.57-11.14 17.57-8.30L17.57-8.30L17.57-8.30Q17.57-5.47 19.10-5.47L19.10-5.47L19.10-5.47Q20.02-5.47 21.77-7.03L21.77-7.03L21.77-7.03Q23.52-8.59 24.72-10.42L24.72-10.42L24.72-10.42Q25.78-21.26 25.78-23.38L25.78-23.38L25.78-23.38Q25.78-25.49 25.75-26.26L25.75-26.26L25.75-26.26Q25.73-27.02 25.66-27.74L25.66-27.74L25.66-27.74Q25.58-28.46 25.56-28.82L25.56-28.82L25.56-28.82Q25.54-29.18 25.37-29.81L25.37-29.81L25.37-29.81Q25.20-30.43 25.18-30.53L25.18-30.53L25.18-30.53Q25.15-30.62 24.94-31.34L24.94-31.34L24.94-31.34Q24.72-32.06 24.72-32.11L24.72-32.11L24.72-32.11Q27.17-33.41 32.74-34.08L32.74-34.08L32.74-34.03L32.74-34.03Q33.26-32.35 33.26-29.21L33.26-29.21L33.26-29.21Q33.26-26.06 32.30-18.29L32.30-18.29L32.30-18.29Q31.34-10.51 31.34-7.99L31.34-7.99L31.34-7.99Q31.34-5.47 32.81-5.47L32.81-5.47L32.81-5.47Q34.27-5.47 36.36-8.06L36.36-8.06L36.36-8.06Q38.45-10.66 40.20-14.83L40.20-14.83L40.20-14.83Q41.95-19.01 42.38-22.94L42.38-22.94L42.38-22.94Q42.38-26.83 38.30-31.92L38.30-31.92L38.30-31.92Q39.26-33.98 40.80-35.64L40.80-35.64L40.80-35.64Q42.34-37.30 43.39-37.92L43.39-37.92L44.45-38.59L44.45-38.59Q46.22-38.59 47.50-36.07L47.50-36.07L47.50-36.07Q48.77-33.55 48.77-30.17L48.77-30.17L48.77-30.17Q48.77-26.78 46.94-21.48L46.94-21.48L46.94-21.48Q45.12-16.18 42.36-11.28L42.36-11.28L42.36-11.28Q39.60-6.38 35.88-2.90L35.88-2.90L35.88-2.90Q32.16 0.58 28.80 0.58L28.80 0.58L28.80 0.58Q27.07 0.58 25.78-1.15L25.78-1.15L25.78-1.15Q24.48-2.88 24.43-5.57L24.43-5.57L24.43-5.57Q22.37-2.69 20.06-1.06L20.06-1.06L20.06-1.06Q17.76 0.58 15.46 0.58L15.46 0.58L15.46 0.58Q13.15 0.58 11.62-1.30L11.62-1.30L11.62-1.30Q10.08-3.17 10.08-5.90ZM10.80-24.82L10.80-24.82L10.80-24.82Q10.80-27.79 10.25-28.87L10.25-28.87L10.25-28.87Q9.70-29.95 8.14-29.95L8.14-29.95L8.14-29.95Q6.58-29.95 4.54-28.22L4.54-28.22L4.54-28.22Q2.50-26.50 2.50-23.71L2.50-23.71L2.50-23.71Q2.50-20.93 4.92-19.10L4.92-19.10L4.92-19.10Q7.34-17.28 10.56-17.28L10.56-17.28L10.56-17.28Q10.80-21.84 10.80-24.82ZM47.86-8.30L47.86-8.30L47.86-8.30Q47.86-14.30 51.48-17.78L51.48-17.78L51.48-17.78Q55.10-21.26 59.71-21.26L59.71-21.26L59.71-21.26Q62.54-21.26 64.37-19.87L64.37-19.87L64.37-19.87Q66.19-18.48 66.19-16.15L66.19-16.15L66.19-16.15Q66.19-13.82 65.02-12.24L65.02-12.24L65.02-12.24Q63.84-10.66 62.16-9.79L62.16-9.79L62.16-9.79Q58.75-8.11 55.92-7.68L55.92-7.68L54.77-7.54L54.77-7.54Q55.10-3.02 58.46-3.02L58.46-3.02L58.46-3.02Q59.62-3.02 60.91-3.60L60.91-3.60L60.91-3.60Q62.21-4.18 62.93-4.75L62.93-4.75L63.65-5.33L64.80-3.79L64.80-3.79Q64.42-3.26 63.26-2.40L63.26-2.40L63.26-2.40Q62.11-1.54 61.10-0.96L61.10-0.96L61.10-0.96Q58.32 0.58 55.01 0.58L55.01 0.58L55.01 0.58Q51.70 0.58 49.78-1.78L49.78-1.78L49.78-1.78Q47.86-4.13 47.86-8.30ZM54.72-9.89L54.72-9.89Q57.17-10.32 58.61-11.95L58.61-11.95L58.61-11.95Q60.05-13.58 60.05-16.18L60.05-16.18L60.05-16.18Q60.05-18.77 58.51-18.77L58.51-18.77L58.51-18.77Q56.69-18.77 55.70-15.67L55.70-15.67L55.70-15.67Q54.72-12.58 54.72-9.89L54.72-9.89ZM70.92 0.58L70.92 0.58L70.92 0.58Q69.26 0.58 68.18-0.53L68.18-0.53L68.18-0.53Q67.10-1.63 67.10-3.62L67.10-3.62L67.10-3.62Q67.10-5.62 69.48-16.34L69.48-16.34L69.48-16.34Q71.86-27.07 71.86-31.82L71.86-31.82L71.57-33.94L71.57-33.94Q75.31-35.23 78.58-35.23L78.58-35.23L78.58-35.23Q79.06-34.56 79.06-32.88L79.06-32.88L79.06-32.88Q79.06-29.04 76.63-18.02L76.63-18.02L76.63-18.02Q74.21-7.01 74.21-5.21L74.21-5.21L74.21-5.21Q74.21-3.41 74.64-3.41L74.64-3.41L78-4.61L78.86-2.93L78.86-2.93Q77.23-1.63 74.90-0.53L74.90-0.53L74.90-0.53Q72.58 0.58 70.92 0.58ZM91.01-18.86L91.01-18.86L91.01-18.86Q89.09-18.86 87.94-15.67L87.94-15.67L87.94-15.67Q86.78-12.48 86.78-8.83L86.78-8.83L86.78-8.83Q86.78-3.07 90.34-3.07L90.34-3.07L90.34-3.07Q91.49-3.07 92.78-3.62L92.78-3.62L92.78-3.62Q94.08-4.18 94.85-4.70L94.85-4.70L95.57-5.28L96.67-3.79L96.67-3.79Q96.29-3.26 95.14-2.40L95.14-2.40L95.14-2.40Q93.98-1.54 92.98-0.96L92.98-0.96L92.98-0.96Q91.97-0.38 90.38 0.10L90.38 0.10L90.38 0.10Q88.80 0.58 87.26 0.58L87.26 0.58L87.26 0.58Q83.52 0.58 81.65-1.87L81.65-1.87L81.65-1.87Q79.78-4.32 79.78-8.45L79.78-8.45L79.78-8.45Q79.78-14.16 82.92-17.71L82.92-17.71L82.92-17.71Q86.06-21.26 91.01-21.26L91.01-21.26L91.01-21.26Q94.22-21.26 96.12-19.80L96.12-19.80L96.12-19.80Q98.02-18.34 98.02-16.20L98.02-16.20L98.02-16.20Q98.02-14.06 96.67-12.53L96.67-12.53L96.67-12.53Q95.47-12.53 93.89-13.06L93.89-13.06L93.89-13.06Q92.30-13.58 91.49-14.35L91.49-14.35L92.21-18.58L92.21-18.58Q91.78-18.86 91.01-18.86ZM105.74 0.58L105.74 0.58L105.74 0.58Q102.43 0.58 100.56-1.75L100.56-1.75L100.56-1.75Q98.69-4.08 98.69-8.26L98.69-8.26L98.69-8.26Q98.69-13.58 101.54-17.42L101.54-17.42L101.54-17.42Q104.40-21.26 109.44-21.26L109.44-21.26L111.17-21.17L111.17-21.17Q111.98-21.60 112.99-21.60L112.99-21.60L112.99-21.60Q116.78-21.60 116.78-14.45L116.78-14.45L116.78-14.45Q118.75-14.54 120.77-14.98L120.77-14.98L121.54-15.17L121.82-13.30L121.82-13.30Q120.24-12.62 117.55-12.10L117.55-12.10L116.59-11.90L116.59-11.90Q115.68-6.86 112.90-3.14L112.90-3.14L112.90-3.14Q110.11 0.58 105.74 0.58ZM108.34-3.55L108.34-3.55L108.34-3.55Q110.35-3.55 111.96-6.14L111.96-6.14L111.96-6.14Q113.57-8.74 114.19-11.62L114.19-11.62L114.19-11.62Q109.06-11.62 109.06-15.46L109.06-15.46L109.06-15.46Q109.06-16.99 109.68-18.34L109.68-18.34L109.92-18.82L109.92-18.82Q109.73-18.91 109.44-18.91L109.44-18.91L109.44-18.91Q109.15-18.91 109.01-18.82L109.01-18.82L109.01-18.82Q107.81-18.05 106.75-15.22L106.75-15.22L106.75-15.22Q105.70-12.38 105.70-8.74L105.70-8.74L105.70-8.74Q105.70-3.55 108.34-3.55ZM119.09 0.14L119.09 0.14L118.18 0.14L118.18 0.14Q118.18-2.11 119.54-8.50L119.54-8.50L119.54-8.50Q120.91-14.88 120.91-15.74L120.91-15.74L120.91-15.74Q120.91-17.33 119.57-19.10L119.57-19.10L119.14-19.68L119.18-20.30L119.18-20.30Q121.78-21.02 127.49-21.02L127.49-21.02L127.49-21.02Q128.16-20.11 128.16-18.05L128.16-18.05L128.16-18.05Q132.48-21.26 135.02-21.26L135.02-21.26L135.02-21.26Q138.24-21.26 138.82-17.95L138.82-17.95L138.82-17.95Q140.11-19.01 142.20-20.14L142.20-20.14L142.20-20.14Q144.29-21.26 145.94-21.26L145.94-21.26L145.94-21.26Q147.60-21.26 148.70-20.18L148.70-20.18L148.70-20.18Q149.81-19.10 149.81-17.18L149.81-17.18L149.81-17.18Q149.81-15.26 148.75-10.85L148.75-10.85L148.75-10.85Q147.70-6.43 147.70-4.92L147.70-4.92L147.70-4.92Q147.70-3.41 148.13-3.41L148.13-3.41L148.13-3.41Q148.42-3.41 150.10-4.32L150.10-4.32L150.62-4.61L151.49-2.93L151.49-2.93Q150.24-1.68 148.10-0.55L148.10-0.55L148.10-0.55Q145.97 0.58 144.34 0.58L144.34 0.58L144.34 0.58Q140.74 0.58 140.74-3.50L140.74-3.50L140.74-3.50Q140.74-4.99 141.77-9.48L141.77-9.48L141.77-9.48Q142.80-13.97 142.80-15.34L142.80-15.34L142.80-15.34Q142.80-16.70 141.98-16.70L141.98-16.70L141.98-16.70Q140.59-16.70 138.82-15.65L138.82-15.65L138.82-15.65Q138.72-14.69 137.50-9.12L137.50-9.12L137.50-9.12Q136.27-3.55 136.27-0.48L136.27-0.48L136.27-0.48Q134.88 0.14 129.74 0.14L129.74 0.14L129.74 0.14Q129.65-0.38 129.65-2.40L129.65-2.40L129.65-2.40Q129.65-4.42 130.78-9.26L130.78-9.26L130.78-9.26Q131.90-14.11 131.90-15.41L131.90-15.41L131.90-15.41Q131.90-16.70 130.99-16.70L130.99-16.70L130.99-16.70Q129.55-16.70 127.82-15.55L127.82-15.55L127.82-15.55Q127.73-15.12 126.86-11.33L126.86-11.33L126.86-11.33Q125.14-3.74 125.14-0.53L125.14-0.53L125.14-0.53Q123.46 0.14 119.09 0.14ZM152.83-8.30L152.83-8.30L152.83-8.30Q152.83-14.30 156.46-17.78L156.46-17.78L156.46-17.78Q160.08-21.26 164.69-21.26L164.69-21.26L164.69-21.26Q167.52-21.26 169.34-19.87L169.34-19.87L169.34-19.87Q171.17-18.48 171.17-16.15L171.17-16.15L171.17-16.15Q171.17-13.82 169.99-12.24L169.99-12.24L169.99-12.24Q168.82-10.66 167.14-9.79L167.14-9.79L167.14-9.79Q163.73-8.11 160.90-7.68L160.90-7.68L159.74-7.54L159.74-7.54Q160.08-3.02 163.44-3.02L163.44-3.02L163.44-3.02Q164.59-3.02 165.89-3.60L165.89-3.60L165.89-3.60Q167.18-4.18 167.90-4.75L167.90-4.75L168.62-5.33L169.78-3.79L169.78-3.79Q169.39-3.26 168.24-2.40L168.24-2.40L168.24-2.40Q167.09-1.54 166.08-0.96L166.08-0.96L166.08-0.96Q163.30 0.58 159.98 0.58L159.98 0.58L159.98 0.58Q156.67 0.58 154.75-1.78L154.75-1.78L154.75-1.78Q152.83-4.13 152.83-8.30ZM159.70-9.89L159.70-9.89Q162.14-10.32 163.58-11.95L163.58-11.95L163.58-11.95Q165.02-13.58 165.02-16.18L165.02-16.18L165.02-16.18Q165.02-18.77 163.49-18.77L163.49-18.77L163.49-18.77Q161.66-18.77 160.68-15.67L160.68-15.67L160.68-15.67Q159.70-12.58 159.70-9.89L159.70-9.89Z" fill="url(#editing-shiny-gradient)"></path></g></g><g filter="url(#editing-shiny2)"><g transform="translate(164.57975435256958, 94.58500480651855)"><path d="M10.08-5.90L10.08-5.90L10.37-14.06L10.37-14.06Q5.76-14.64 2.64-17.18L2.64-17.18L2.64-17.18Q-0.48-19.73-0.48-24L-0.48-24L-0.48-24Q-0.48-27.50 2.98-30.79L2.98-30.79L2.98-30.79Q6.43-34.08 11.23-34.08L11.23-34.08L11.23-34.08Q18.29-34.08 18.29-24.91L18.29-24.91L18.29-24.91Q18.29-22.22 17.93-16.68L17.93-16.68L17.93-16.68Q17.57-11.14 17.57-8.30L17.57-8.30L17.57-8.30Q17.57-5.47 19.10-5.47L19.10-5.47L19.10-5.47Q20.02-5.47 21.77-7.03L21.77-7.03L21.77-7.03Q23.52-8.59 24.72-10.42L24.72-10.42L24.72-10.42Q25.78-21.26 25.78-23.38L25.78-23.38L25.78-23.38Q25.78-25.49 25.75-26.26L25.75-26.26L25.75-26.26Q25.73-27.02 25.66-27.74L25.66-27.74L25.66-27.74Q25.58-28.46 25.56-28.82L25.56-28.82L25.56-28.82Q25.54-29.18 25.37-29.81L25.37-29.81L25.37-29.81Q25.20-30.43 25.18-30.53L25.18-30.53L25.18-30.53Q25.15-30.62 24.94-31.34L24.94-31.34L24.94-31.34Q24.72-32.06 24.72-32.11L24.72-32.11L24.72-32.11Q27.17-33.41 32.74-34.08L32.74-34.08L32.74-34.03L32.74-34.03Q33.26-32.35 33.26-29.21L33.26-29.21L33.26-29.21Q33.26-26.06 32.30-18.29L32.30-18.29L32.30-18.29Q31.34-10.51 31.34-7.99L31.34-7.99L31.34-7.99Q31.34-5.47 32.81-5.47L32.81-5.47L32.81-5.47Q34.27-5.47 36.36-8.06L36.36-8.06L36.36-8.06Q38.45-10.66 40.20-14.83L40.20-14.83L40.20-14.83Q41.95-19.01 42.38-22.94L42.38-22.94L42.38-22.94Q42.38-26.83 38.30-31.92L38.30-31.92L38.30-31.92Q39.26-33.98 40.80-35.64L40.80-35.64L40.80-35.64Q42.34-37.30 43.39-37.92L43.39-37.92L44.45-38.59L44.45-38.59Q46.22-38.59 47.50-36.07L47.50-36.07L47.50-36.07Q48.77-33.55 48.77-30.17L48.77-30.17L48.77-30.17Q48.77-26.78 46.94-21.48L46.94-21.48L46.94-21.48Q45.12-16.18 42.36-11.28L42.36-11.28L42.36-11.28Q39.60-6.38 35.88-2.90L35.88-2.90L35.88-2.90Q32.16 0.58 28.80 0.58L28.80 0.58L28.80 0.58Q27.07 0.58 25.78-1.15L25.78-1.15L25.78-1.15Q24.48-2.88 24.43-5.57L24.43-5.57L24.43-5.57Q22.37-2.69 20.06-1.06L20.06-1.06L20.06-1.06Q17.76 0.58 15.46 0.58L15.46 0.58L15.46 0.58Q13.15 0.58 11.62-1.30L11.62-1.30L11.62-1.30Q10.08-3.17 10.08-5.90ZM10.80-24.82L10.80-24.82L10.80-24.82Q10.80-27.79 10.25-28.87L10.25-28.87L10.25-28.87Q9.70-29.95 8.14-29.95L8.14-29.95L8.14-29.95Q6.58-29.95 4.54-28.22L4.54-28.22L4.54-28.22Q2.50-26.50 2.50-23.71L2.50-23.71L2.50-23.71Q2.50-20.93 4.92-19.10L4.92-19.10L4.92-19.10Q7.34-17.28 10.56-17.28L10.56-17.28L10.56-17.28Q10.80-21.84 10.80-24.82ZM47.86-8.30L47.86-8.30L47.86-8.30Q47.86-14.30 51.48-17.78L51.48-17.78L51.48-17.78Q55.10-21.26 59.71-21.26L59.71-21.26L59.71-21.26Q62.54-21.26 64.37-19.87L64.37-19.87L64.37-19.87Q66.19-18.48 66.19-16.15L66.19-16.15L66.19-16.15Q66.19-13.82 65.02-12.24L65.02-12.24L65.02-12.24Q63.84-10.66 62.16-9.79L62.16-9.79L62.16-9.79Q58.75-8.11 55.92-7.68L55.92-7.68L54.77-7.54L54.77-7.54Q55.10-3.02 58.46-3.02L58.46-3.02L58.46-3.02Q59.62-3.02 60.91-3.60L60.91-3.60L60.91-3.60Q62.21-4.18 62.93-4.75L62.93-4.75L63.65-5.33L64.80-3.79L64.80-3.79Q64.42-3.26 63.26-2.40L63.26-2.40L63.26-2.40Q62.11-1.54 61.10-0.96L61.10-0.96L61.10-0.96Q58.32 0.58 55.01 0.58L55.01 0.58L55.01 0.58Q51.70 0.58 49.78-1.78L49.78-1.78L49.78-1.78Q47.86-4.13 47.86-8.30ZM54.72-9.89L54.72-9.89Q57.17-10.32 58.61-11.95L58.61-11.95L58.61-11.95Q60.05-13.58 60.05-16.18L60.05-16.18L60.05-16.18Q60.05-18.77 58.51-18.77L58.51-18.77L58.51-18.77Q56.69-18.77 55.70-15.67L55.70-15.67L55.70-15.67Q54.72-12.58 54.72-9.89L54.72-9.89ZM70.92 0.58L70.92 0.58L70.92 0.58Q69.26 0.58 68.18-0.53L68.18-0.53L68.18-0.53Q67.10-1.63 67.10-3.62L67.10-3.62L67.10-3.62Q67.10-5.62 69.48-16.34L69.48-16.34L69.48-16.34Q71.86-27.07 71.86-31.82L71.86-31.82L71.57-33.94L71.57-33.94Q75.31-35.23 78.58-35.23L78.58-35.23L78.58-35.23Q79.06-34.56 79.06-32.88L79.06-32.88L79.06-32.88Q79.06-29.04 76.63-18.02L76.63-18.02L76.63-18.02Q74.21-7.01 74.21-5.21L74.21-5.21L74.21-5.21Q74.21-3.41 74.64-3.41L74.64-3.41L78-4.61L78.86-2.93L78.86-2.93Q77.23-1.63 74.90-0.53L74.90-0.53L74.90-0.53Q72.58 0.58 70.92 0.58ZM91.01-18.86L91.01-18.86L91.01-18.86Q89.09-18.86 87.94-15.67L87.94-15.67L87.94-15.67Q86.78-12.48 86.78-8.83L86.78-8.83L86.78-8.83Q86.78-3.07 90.34-3.07L90.34-3.07L90.34-3.07Q91.49-3.07 92.78-3.62L92.78-3.62L92.78-3.62Q94.08-4.18 94.85-4.70L94.85-4.70L95.57-5.28L96.67-3.79L96.67-3.79Q96.29-3.26 95.14-2.40L95.14-2.40L95.14-2.40Q93.98-1.54 92.98-0.96L92.98-0.96L92.98-0.96Q91.97-0.38 90.38 0.10L90.38 0.10L90.38 0.10Q88.80 0.58 87.26 0.58L87.26 0.58L87.26 0.58Q83.52 0.58 81.65-1.87L81.65-1.87L81.65-1.87Q79.78-4.32 79.78-8.45L79.78-8.45L79.78-8.45Q79.78-14.16 82.92-17.71L82.92-17.71L82.92-17.71Q86.06-21.26 91.01-21.26L91.01-21.26L91.01-21.26Q94.22-21.26 96.12-19.80L96.12-19.80L96.12-19.80Q98.02-18.34 98.02-16.20L98.02-16.20L98.02-16.20Q98.02-14.06 96.67-12.53L96.67-12.53L96.67-12.53Q95.47-12.53 93.89-13.06L93.89-13.06L93.89-13.06Q92.30-13.58 91.49-14.35L91.49-14.35L92.21-18.58L92.21-18.58Q91.78-18.86 91.01-18.86ZM105.74 0.58L105.74 0.58L105.74 0.58Q102.43 0.58 100.56-1.75L100.56-1.75L100.56-1.75Q98.69-4.08 98.69-8.26L98.69-8.26L98.69-8.26Q98.69-13.58 101.54-17.42L101.54-17.42L101.54-17.42Q104.40-21.26 109.44-21.26L109.44-21.26L111.17-21.17L111.17-21.17Q111.98-21.60 112.99-21.60L112.99-21.60L112.99-21.60Q116.78-21.60 116.78-14.45L116.78-14.45L116.78-14.45Q118.75-14.54 120.77-14.98L120.77-14.98L121.54-15.17L121.82-13.30L121.82-13.30Q120.24-12.62 117.55-12.10L117.55-12.10L116.59-11.90L116.59-11.90Q115.68-6.86 112.90-3.14L112.90-3.14L112.90-3.14Q110.11 0.58 105.74 0.58ZM108.34-3.55L108.34-3.55L108.34-3.55Q110.35-3.55 111.96-6.14L111.96-6.14L111.96-6.14Q113.57-8.74 114.19-11.62L114.19-11.62L114.19-11.62Q109.06-11.62 109.06-15.46L109.06-15.46L109.06-15.46Q109.06-16.99 109.68-18.34L109.68-18.34L109.92-18.82L109.92-18.82Q109.73-18.91 109.44-18.91L109.44-18.91L109.44-18.91Q109.15-18.91 109.01-18.82L109.01-18.82L109.01-18.82Q107.81-18.05 106.75-15.22L106.75-15.22L106.75-15.22Q105.70-12.38 105.70-8.74L105.70-8.74L105.70-8.74Q105.70-3.55 108.34-3.55ZM119.09 0.14L119.09 0.14L118.18 0.14L118.18 0.14Q118.18-2.11 119.54-8.50L119.54-8.50L119.54-8.50Q120.91-14.88 120.91-15.74L120.91-15.74L120.91-15.74Q120.91-17.33 119.57-19.10L119.57-19.10L119.14-19.68L119.18-20.30L119.18-20.30Q121.78-21.02 127.49-21.02L127.49-21.02L127.49-21.02Q128.16-20.11 128.16-18.05L128.16-18.05L128.16-18.05Q132.48-21.26 135.02-21.26L135.02-21.26L135.02-21.26Q138.24-21.26 138.82-17.95L138.82-17.95L138.82-17.95Q140.11-19.01 142.20-20.14L142.20-20.14L142.20-20.14Q144.29-21.26 145.94-21.26L145.94-21.26L145.94-21.26Q147.60-21.26 148.70-20.18L148.70-20.18L148.70-20.18Q149.81-19.10 149.81-17.18L149.81-17.18L149.81-17.18Q149.81-15.26 148.75-10.85L148.75-10.85L148.75-10.85Q147.70-6.43 147.70-4.92L147.70-4.92L147.70-4.92Q147.70-3.41 148.13-3.41L148.13-3.41L148.13-3.41Q148.42-3.41 150.10-4.32L150.10-4.32L150.62-4.61L151.49-2.93L151.49-2.93Q150.24-1.68 148.10-0.55L148.10-0.55L148.10-0.55Q145.97 0.58 144.34 0.58L144.34 0.58L144.34 0.58Q140.74 0.58 140.74-3.50L140.74-3.50L140.74-3.50Q140.74-4.99 141.77-9.48L141.77-9.48L141.77-9.48Q142.80-13.97 142.80-15.34L142.80-15.34L142.80-15.34Q142.80-16.70 141.98-16.70L141.98-16.70L141.98-16.70Q140.59-16.70 138.82-15.65L138.82-15.65L138.82-15.65Q138.72-14.69 137.50-9.12L137.50-9.12L137.50-9.12Q136.27-3.55 136.27-0.48L136.27-0.48L136.27-0.48Q134.88 0.14 129.74 0.14L129.74 0.14L129.74 0.14Q129.65-0.38 129.65-2.40L129.65-2.40L129.65-2.40Q129.65-4.42 130.78-9.26L130.78-9.26L130.78-9.26Q131.90-14.11 131.90-15.41L131.90-15.41L131.90-15.41Q131.90-16.70 130.99-16.70L130.99-16.70L130.99-16.70Q129.55-16.70 127.82-15.55L127.82-15.55L127.82-15.55Q127.73-15.12 126.86-11.33L126.86-11.33L126.86-11.33Q125.14-3.74 125.14-0.53L125.14-0.53L125.14-0.53Q123.46 0.14 119.09 0.14ZM152.83-8.30L152.83-8.30L152.83-8.30Q152.83-14.30 156.46-17.78L156.46-17.78L156.46-17.78Q160.08-21.26 164.69-21.26L164.69-21.26L164.69-21.26Q167.52-21.26 169.34-19.87L169.34-19.87L169.34-19.87Q171.17-18.48 171.17-16.15L171.17-16.15L171.17-16.15Q171.17-13.82 169.99-12.24L169.99-12.24L169.99-12.24Q168.82-10.66 167.14-9.79L167.14-9.79L167.14-9.79Q163.73-8.11 160.90-7.68L160.90-7.68L159.74-7.54L159.74-7.54Q160.08-3.02 163.44-3.02L163.44-3.02L163.44-3.02Q164.59-3.02 165.89-3.60L165.89-3.60L165.89-3.60Q167.18-4.18 167.90-4.75L167.90-4.75L168.62-5.33L169.78-3.79L169.78-3.79Q169.39-3.26 168.24-2.40L168.24-2.40L168.24-2.40Q167.09-1.54 166.08-0.96L166.08-0.96L166.08-0.96Q163.30 0.58 159.98 0.58L159.98 0.58L159.98 0.58Q156.67 0.58 154.75-1.78L154.75-1.78L154.75-1.78Q152.83-4.13 152.83-8.30ZM159.70-9.89L159.70-9.89Q162.14-10.32 163.58-11.95L163.58-11.95L163.58-11.95Q165.02-13.58 165.02-16.18L165.02-16.18L165.02-16.18Q165.02-18.77 163.49-18.77L163.49-18.77L163.49-18.77Q161.66-18.77 160.68-15.67L160.68-15.67L160.68-15.67Q159.70-12.58 159.70-9.89L159.70-9.89Z" fill="url(#editing-shiny-gradient2)"></path></g></g><style>text {
  font-size: 64px;
  font-family: Arial Black;
  dominant-baseline: central;
  text-anchor: middle;
}</style></svg>